<svg width="64" height="64" viewBox="0 0 64 64" fill="none" xmlns="http://www.w3.org/2000/svg">
  <!-- Background circle with Guinea flag colors -->
  <defs>
    <linearGradient id="guineaGradient" x1="0%" y1="0%" x2="0%" y2="100%">
      <stop offset="0%" style="stop-color:#CE1126;stop-opacity:1" />
      <stop offset="33.33%" style="stop-color:#CE1126;stop-opacity:1" />
      <stop offset="33.33%" style="stop-color:#FCD116;stop-opacity:1" />
      <stop offset="66.66%" style="stop-color:#FCD116;stop-opacity:1" />
      <stop offset="66.66%" style="stop-color:#009639;stop-opacity:1" />
      <stop offset="100%" style="stop-color:#009639;stop-opacity:1" />
    </linearGradient>
    <linearGradient id="brainGradient" x1="0%" y1="0%" x2="100%" y2="100%">
      <stop offset="0%" style="stop-color:#ffffff;stop-opacity:0.95" />
      <stop offset="100%" style="stop-color:#f0f0f0;stop-opacity:0.9" />
    </linearGradient>
    <filter id="glow">
      <feGaussianBlur stdDeviation="2" result="coloredBlur"/>
      <feMerge> 
        <feMergeNode in="coloredBlur"/>
        <feMergeNode in="SourceGraphic"/>
      </feMerge>
    </filter>
  </defs>
  
  <!-- Main circle background with Guinea flag colors -->
  <circle cx="32" cy="32" r="30" fill="url(#guineaGradient)" stroke="white" stroke-width="2"/>
  
  <!-- AI Brain icon -->
  <g transform="translate(16, 16)">
    <!-- Brain outline -->
    <path d="M16 4C20 4 24 6 26 10C28 8 32 8 32 12C32 16 30 18 28 20C30 22 32 24 32 28C32 32 28 32 26 30C24 32 20 32 16 28C12 32 8 32 8 28C8 24 10 22 12 20C10 18 8 16 8 12C8 8 12 8 14 10C16 6 20 4 16 4Z" 
          fill="url(#brainGradient)" 
          stroke="#374151" 
          stroke-width="1.5"
          opacity="0.95"/>
    
    <!-- Neural network lines -->
    <path d="M12 12L20 16M20 16L16 20M16 20L24 24" 
          stroke="#374151" 
          stroke-width="1.5" 
          stroke-linecap="round" 
          opacity="0.8"/>
    
    <!-- Connection nodes -->
    <circle cx="12" cy="12" r="2" fill="#374151"/>
    <circle cx="20" cy="16" r="2" fill="#374151"/>
    <circle cx="16" cy="20" r="2" fill="#374151"/>
    <circle cx="24" cy="24" r="2" fill="#374151"/>
  </g>
  
  <!-- Sparkle effects with Guinea colors -->
  <g opacity="0.8" filter="url(#glow)">
    <circle cx="12" cy="12" r="1.5" fill="#FCD116"/>
    <circle cx="52" cy="16" r="1.5" fill="#CE1126"/>
    <circle cx="48" cy="48" r="1.5" fill="#009639"/>
    <circle cx="16" cy="52" r="1.5" fill="#FCD116"/>
  </g>
</svg>
