<svg width="32" height="32" viewBox="0 0 32 32" fill="none" xmlns="http://www.w3.org/2000/svg">
  <!-- Background circle with gradient -->
  <defs>
    <linearGradient id="bgGradient" x1="0%" y1="0%" x2="100%" y2="100%">
      <stop offset="0%" style="stop-color:#6366f1;stop-opacity:1" />
      <stop offset="100%" style="stop-color:#8b5cf6;stop-opacity:1" />
    </linearGradient>
    <linearGradient id="brainGradient" x1="0%" y1="0%" x2="100%" y2="100%">
      <stop offset="0%" style="stop-color:#f59e0b;stop-opacity:1" />
      <stop offset="100%" style="stop-color:#f97316;stop-opacity:1" />
    </linearGradient>
  </defs>
  
  <!-- Main circle background -->
  <circle cx="16" cy="16" r="15" fill="url(#bgGradient)" stroke="white" stroke-width="1"/>
  
  <!-- AI Brain icon (simplified for small size) -->
  <g transform="translate(8, 8)">
    <!-- Brain outline -->
    <path d="M8 2C10 2 12 3 13 5C14 4 16 4 16 6C16 8 15 9 14 10C15 11 16 12 16 14C16 16 14 16 13 15C12 16 10 16 8 14C4 16 2 16 2 14C2 12 3 11 4 10C3 9 2 8 2 6C2 4 4 4 5 5C6 3 8 2 8 2Z" 
          fill="url(#brainGradient)" 
          stroke="white" 
          stroke-width="0.8"/>
    
    <!-- Neural network lines -->
    <path d="M6 6L10 8M10 8L8 10M8 10L12 12" 
          stroke="white" 
          stroke-width="0.8" 
          stroke-linecap="round" 
          opacity="0.8"/>
    
    <!-- Connection nodes -->
    <circle cx="6" cy="6" r="1" fill="white"/>
    <circle cx="10" cy="8" r="1" fill="white"/>
    <circle cx="8" cy="10" r="1" fill="white"/>
    <circle cx="12" cy="12" r="1" fill="white"/>
  </g>
</svg>